<svg role="img" viewBox="0 0 200 200" xmlns="http://www.w3.org/2000/svg" id="Android--Streamline-Simple-Icons" height="200" width="200">
  <desc>
    Android Streamline Icon: https://streamlinehq.com
  </desc>
  <title>Android</title>
  <path d="M153.6625 46.32166666666667c-5.625000000000001 9.720000000000002 -11.266666666666667 19.43166666666667 -16.895000000000003 29.150000000000002 -0.30500000000000005 -0.12916666666666668 -0.6183333333333334 -0.23833333333333334 -0.9275 -0.35833333333333334 -15.207500000000001 -5.7975 -29.033333333333335 -6.666666666666668 -36.833333333333336 -6.5583333333333345 -15.459166666666668 0.15416666666666667 -27.953333333333337 3.8691666666666666 -35.4975 6.835833333333334 -0.7000000000000001 -1.245 -14.605 -25.175 -16.845833333333335 -29.053333333333338a9.5425 9.5425 0 0 0 -1.1716666666666669 -1.595c-2.7600000000000002 -3.0333333333333337 -7.545000000000001 -4.049166666666667 -11.491666666666667 -1.6916666666666669 -3.9583333333333335 2.35 -5.946666666666667 7.800833333333334 -3.2383333333333337 12.515833333333335 16.221666666666668 28.080000000000002 -0.805 -1.7983333333333333 16.227500000000003 27.99416666666667 0.14333333333333334 0.25833333333333336 -4.121666666666667 2.2016666666666667 -11.605000000000002 8.480833333333335C24.155833333333334 101.46666666666667 3.766666666666667 123.10000000000001 0 158.2516666666667h200c-0.9916666666666667 -9.256666666666668 -3.0716666666666668 -17.49166666666667 -6.2175 -25.569166666666668 -6.198333333333334 -15.931666666666667 -15.3625 -27.440000000000005 -22.835000000000004 -34.86333333333334a100.87333333333333 100.87333333333333 0 0 0 -17.7575 -14.062500000000002c5.495 -9.350000000000001 10.933333333333335 -18.799166666666668 16.374166666666667 -28.206666666666667 1.7308333333333334 -3.0125 1.5716666666666668 -6.63 -0.06583333333333334 -9.325833333333334a9.1675 9.1675 0 0 0 -7.095833333333334 -4.443333333333333c-4.354166666666667 -0.4466666666666667 -7.826666666666667 2.606666666666667 -8.74 4.540833333333334zm-0.32583333333333336 70.50833333333334c3.2866666666666666 4.9383333333333335 2.7 11.088333333333335 -1.3025 13.752500000000001 -3.999166666666667 2.6641666666666666 -9.9 0.8208333333333334 -13.183333333333335 -4.1175 -3.2866666666666666 -4.939166666666667 -2.7 -11.089166666666667 1.3025 -13.753333333333336 3.939166666666667 -2.625 9.843333333333334 -0.905 13.183333333333335 4.1175zM60.05833333333334 112.7275c4.0025 2.6641666666666666 4.588333333333334 8.814166666666669 1.3025 13.753333333333336 -3.2833333333333337 4.9383333333333335 -9.198333333333332 6.781666666666667 -13.200000000000001 4.1175 -4 -2.6641666666666666 -4.585833333333333 -8.814166666666669 -1.3025 -13.753333333333336 3.3400000000000003 -5.0175 9.239166666666668 -6.755000000000001 13.200000000000001 -4.1175z" fill="#dedede" stroke-width="8.3333"></path>
</svg>