<svg role="img" viewBox="0 0 200 200" xmlns="http://www.w3.org/2000/svg" id="Firebase--Streamline-Simple-Icons" height="200" width="200">
  <desc>
    Firebase Streamline Icon: https://streamlinehq.com
  </desc>
  <title>Firebase</title>
  <path d="M162.125 69.74166666666667c-4.483333333333334 -6.233333333333333 -14.816666666666668 -19.041666666666668 -30.675000000000004 -38.075 -6.883333333333334 -8.258333333333335 -12.791666666666666 -15.266666666666667 -15.700000000000001 -18.708333333333336a1216.6666666666667 1216.6666666666667 0 0 0 -4.066666666666666 -4.8l-1.725 -2.041666666666667 -0.9416666666666668 -1.1083333333333334 -0.18333333333333335 -0.2666666666666667 -0.08333333333333334 -0.04166666666666667L104.75000000000001 0l-5.075 4.066666666666666c-12.958333333333334 10.383333333333335 -23.566666666666666 23.758333333333336 -30.675000000000004 38.666666666666664 -4.358333333333333 8.866666666666667 -7.2 17.541666666666668 -8.691666666666666 26.46666666666667 -0.3916666666666667 2.0083333333333333 -0.7333333333333334 4.075 -1.0083333333333333 6.15 -1.7416666666666667 -0.1416666666666667 -3.5083333333333333 -0.23333333333333336 -5.2666666666666675 -0.275 -0.15 -0.008333333333333335 -0.29166666666666674 -0.01666666666666667 -0.4916666666666667 -0.025a62.16666666666667 62.16666666666667 0 0 0 -19 2.2833333333333337l-2.641666666666667 0.7416666666666667 -1.3583333333333334 2.3833333333333333c-6.375000000000001 11.183333333333335 -9.983333333333334 23.90833333333334 -10.433333333333334 36.800000000000004 -0.5833333333333335 16.75 3.975 32.95 13.191666666666666 46.875 9.016666666666667 13.608333333333334 21.75 24.01666666666667 36.833333333333336 30.091666666666672l1.9666666666666668 0.7916666666666667 0.5916666666666667 0.20833333333333337 0.025 -0.008333333333333335a79.91666666666667 79.91666666666667 0 0 0 24.508333333333333 4.733333333333333q1.4250000000000003 0.05 2.8500000000000005 0.05c10.608333333333333 0 20.941666666666666 -2.075 30.75 -6.183333333333334l0.06666666666666668 0.03333333333333334 2.6083333333333334 -1.2083333333333333a80.25000000000001 80.25000000000001 0 0 0 32.725 -27.791666666666668c8.416666666666668 -12.416666666666668 13.141666666666667 -26.950000000000003 13.675 -42.016666666666666 0.625 -18.008333333333336 -5.358333333333334 -35.866666666666674 -17.775000000000002 -53.091666666666676m-59.025000000000006 55.79166666666667c2.733333333333334 10.366666666666667 2.2 20.333333333333336 -1.5916666666666668 29.650000000000002 -9.458333333333334 -9.333333333333336 -16.39166666666667 -19.6 -20.625000000000004 -30.541666666666668 -4.525 -11.7 -7.250000000000001 -22.833333333333336 -8.116666666666667 -33.125 4 1.3083333333333333 7.6833333333333345 3.0500000000000003 10.958333333333334 5.183333333333334 9.433333333333334 6.141666666666667 15.950000000000001 15.85 19.375000000000004 28.84166666666667zm1.725 50.18333333333334c4.016666666666667 3.066666666666667 8.25 5.933333333333334 12.608333333333334 8.566666666666668 -6.425000000000001 1.75 -13.041666666666668 2.5166666666666666 -19.74166666666667 2.2750000000000004a66.66666666666667 66.66666666666667 0 0 1 -3.1083333333333334 -0.18333333333333335c3.816666666666667 -3.2833333333333337 7.241666666666667 -6.858333333333333 10.233333333333334 -10.658333333333333zm11.225000000000001 -53.59166666666667c-4.300000000000001 -16.308333333333334 -12.725 -28.641666666666666 -25.016666666666666 -36.65 -5.3916666666666675 -3.5083333333333333 -11.541666666666668 -6.175000000000001 -18.283333333333335 -7.916666666666667 0.09166666666666667 -1.116666666666667 0.21666666666666667 -2.233333333333334 0.35833333333333334 -3.333333333333334 0.11666666666666668 -0.9416666666666668 0.25 -1.8 0.38333333333333336 -2.6083333333333334 1.1083333333333334 -5.741666666666666 2.766666666666667 -11.416666666666668 4.908333333333333 -16.875 0.8250000000000001 -2.0833333333333335 1.7166666666666668 -4.158333333333333 2.6750000000000003 -6.166666666666667l0.03333333333333334 -0.06666666666666668c1.475 -2.9833333333333334 3.1333333333333337 -5.991666666666667 5.083333333333334 -9.208333333333334l0.7666666666666667 -1.2666666666666668 -0.025 -0.008333333333333335c4.533333333333334 -7.091666666666667 9.975000000000001 -13.558333333333334 16.183333333333334 -19.258333333333333l2.4 2.8416666666666672c5.6000000000000005 6.633333333333334 10.866666666666667 12.900000000000002 15.65 18.64166666666667 10.758333333333333 12.908333333333333 24.71666666666667 29.858333333333338 30.1 37.33333333333334 10.641666666666667 14.758333333333333 15.775000000000002 29.825000000000003 15.250000000000002 44.79166666666667 -0.4083333333333334 11.625000000000002 -3.8416666666666672 22.958333333333336 -9.958333333333334 32.775 -5.783333333333333 9.3 -13.841666666666669 17.083333333333332 -23.333333333333332 22.56666666666667 -5.300000000000001 -2.6500000000000004 -12.991666666666667 -6.991666666666667 -21.158333333333335 -13.325000000000001 6.583333333333334 -13.125 7.933333333333334 -27.333333333333332 3.9916666666666667 -42.26666666666667zm-21.458333333333336 44.97500000000001c-6.041666666666667 7.825 -13.225000000000001 12.916666666666668 -17.416666666666668 15.466666666666669 -0.675 -0.2416666666666667 -1.3583333333333334 -0.5 -2.025 -0.775l-0.5416666666666667 -0.21666666666666667c-12.416666666666668 -5.133333333333334 -22.891666666666666 -13.8 -30.291666666666668 -25.083333333333332 -7.5583333333333345 -11.533333333333333 -11.3 -24.941666666666666 -10.816666666666668 -38.775 0.34166666666666673 -9.916666666666666 2.816666666666667 -19.39166666666667 7.3500000000000005 -28.158333333333335 2.6333333333333337 -0.5833333333333335 5.316666666666667 -0.9500000000000001 8 -1.0916666666666668l0.7000000000000001 -0.01666666666666667c1.35 -0.025 2.7 -0.025 3.9833333333333334 0 1.8916666666666668 0.09166666666666667 3.7833333333333337 0.29166666666666674 5.6416666666666675 0.5833333333333335 0.6083333333333334 12.608333333333334 3.7083333333333335 26.208333333333336 9.208333333333334 40.43333333333334 5.308333333333334 13.700000000000001 14.116666666666667 26.35 26.200000000000003 37.625z" fill="#dedede" stroke-width="8.3333"></path>
</svg>