<svg role="img" viewBox="0 0 200 200" xmlns="http://www.w3.org/2000/svg" id="Ios--Streamline-Simple-Icons" height="200" width="200">
  <desc>
    Ios Streamline Icon: https://streamlinehq.com
  </desc>
  <title>iOS</title>
  <path d="M9.166666666666668 50.41666666666667c-5.116666666666667 0 -9.166666666666668 4 -9.166666666666668 9.000000000000002a9.000000000000002 9.000000000000002 0 0 0 9.166666666666668 9.000000000000002c5.166666666666667 0 9.250000000000002 -4 9.250000000000002 -9.000000000000002 0 -5 -4.083333333333334 -9.000000000000002 -9.250000000000002 -9.000000000000002m63.41666666666667 0.16666666666666669c-28 0 -45.5 19.083333333333336 -45.5 49.416666666666664 0 30.583333333333336 17.500000000000004 49.583333333333336 45.5 49.583333333333336 27.833333333333336 0 45.41666666666667 -19 45.41666666666667 -49.583333333333336 0 -30.333333333333336 -17.583333333333332 -49.416666666666664 -45.41666666666667 -49.416666666666664m90.33333333333334 0c-20.833333333333336 0 -35.66666666666667 11.5 -35.66666666666667 28.583333333333336 0 13.583333333333334 8.416666666666668 22.083333333333336 26.083333333333336 26.166666666666668l12.416666666666668 3c12.083333333333334 2.7500000000000004 17 6.750000000000001 17 13.666666666666666 0 8 -8.083333333333334 13.666666666666666 -19.583333333333336 13.666666666666666 -11.75 0 -20.583333333333336 -5.75 -21.500000000000004 -14.583333333333334h-16.666666666666668c0.6666666666666667 17.666666666666668 15.166666666666668 28.5 37.16666666666667 28.5 23.250000000000004 0 37.833333333333336 -11.416666666666668 37.833333333333336 -29.583333333333336 0 -14.25 -8.333333333333334 -22.333333333333336 -27.666666666666668 -26.75l-11.083333333333334 -2.5c-11.75 -2.833333333333334 -16.583333333333336 -6.583333333333334 -16.583333333333336 -12.916666666666668 0 -8 7.333333333333334 -13.333333333333336 18.166666666666668 -13.333333333333336 10.916666666666668 0 18.416666666666668 5.416666666666667 19.250000000000004 14.333333333333334h16.333333333333336c-0.41666666666666674 -16.833333333333336 -14.333333333333334 -28.250000000000004 -35.5 -28.250000000000004M72.58333333333334 65.16666666666667c17 0 27.916666666666668 13.583333333333334 27.916666666666668 34.833333333333336 0 21.416666666666668 -10.916666666666668 35.00000000000001 -27.916666666666668 35.00000000000001 -17.166666666666668 0 -28 -13.583333333333334 -28 -35.00000000000001 0 -21.25 10.833333333333334 -34.833333333333336 28 -34.833333333333336M0.925 77.58333333333334v70.41666666666667H17.500000000000004V77.58333333333334H0.9166666666666667Z" fill="#dedede" stroke-width="8.3333"></path>
</svg>