<svg role="img" viewBox="0 0 200 200" xmlns="http://www.w3.org/2000/svg" id="Javascript--Streamline-Simple-Icons" height="200" width="200">
  <desc>
    Javascript Streamline Icon: https://streamlinehq.com
  </desc>
  <title>JavaScript</title>
  <path d="M0 0h200v200H0V0zm183.61666666666667 152.3c-1.4583333333333333 -9.125 -7.4 -16.791666666666668 -25.025000000000002 -23.94166666666667 -6.133333333333334 -2.875 -12.950000000000001 -4.875 -14.975 -9.5 -0.7583333333333334 -2.7500000000000004 -0.875 -4.25 -0.38333333333333336 -5.875 1.25 -5.383333333333334 7.625000000000001 -7 12.625 -5.500000000000001 3.2500000000000004 1 6.25 3.5 8.133333333333333 7.500000000000001 8.616666666666667 -5.633333333333334 8.616666666666667 -5.633333333333334 14.625 -9.375 -2.2500000000000004 -3.5 -3.366666666666667 -5.008333333333334 -4.883333333333334 -6.500000000000001 -5.25 -5.875 -12.241666666666669 -8.875 -23.61666666666667 -8.616666666666667l-5.875 0.7416666666666667c-5.633333333333334 1.3750000000000002 -11.000000000000002 4.375000000000001 -14.25 8.375 -9.5 10.758333333333333 -6.758333333333335 29.508333333333336 4.741666666666666 37.25833333333334 11.375 8.5 28.008333333333336 10.366666666666667 30.133333333333336 18.375000000000004 2 9.75 -7.250000000000001 12.875 -16.383333333333333 11.75 -6.758333333333335 -1.5 -10.5 -4.883333333333334 -14.625 -11.133333333333335l-15.250000000000002 8.758333333333333c1.75 4 3.7500000000000004 5.741666666666666 6.750000000000001 9.241666666666667 14.500000000000002 14.633333333333335 50.75 13.883333333333333 57.25833333333334 -8.366666666666667 0.2416666666666667 -0.75 2 -5.875 0.6166666666666667 -13.75l0.38333333333333336 0.5583333333333335zm-74.85833333333335 -60.37500000000001h-18.733333333333338c0 16.150000000000002 -0.075 32.2 -0.075 48.375 0 10.266666666666667 0.525 19.691666666666666 -1.1500000000000001 22.59166666666667 -2.7500000000000004 5.741666666666666 -9.833333333333334 5.008333333333334 -13.05 4 -3.3000000000000003 -1.6333333333333335 -4.9750000000000005 -3.8833333333333337 -6.916666666666667 -7.125 -0.525 -0.875 -0.9166666666666667 -1.6333333333333335 -1.0583333333333333 -1.6333333333333335l-15.208333333333334 9.375c2.541666666666667 5.25 6.25 9.766666666666667 11.033333333333335 12.641666666666667 7.125 4.25 16.700000000000003 5.625000000000001 26.725 3.3750000000000004 6.525 -1.8833333333333335 12.15 -5.758333333333334 15.091666666666667 -11.758333333333335 4.25 -7.750000000000001 3.3500000000000005 -17.25 3.3083333333333336 -27.883333333333336 0.1 -17.116666666666667 0 -34.24166666666667 0 -51.491666666666674l0.03333333333333334 -0.46666666666666673z" fill="#dedede" stroke-width="8.3333"></path>
</svg>