<svg role="img" viewBox="0 0 200 200" xmlns="http://www.w3.org/2000/svg" id="Livewire--Streamline-Simple-Icons" height="200" width="200">
  <desc>
    Livewire Streamline Icon: https://streamlinehq.com
  </desc>
  <title>Livewire</title>
  <path d="M100.00833333333334 0C51.44583333333333 0 12.068333333333333 41.307500000000005 12.068333333333333 92.26916666666668c0 17.406666666666666 4.598333333333334 33.68083333333333 12.581666666666667 47.575 2.0766666666666667 2.33 4.533333333333334 4.035833333333334 8.040833333333333 4.035833333333334 11.156666666666668 0 10.565000000000001 -17.203333333333333 21.728333333333335 -17.203333333333333 11.1625 0 11.759166666666667 17.203333333333333 22.916666666666668 17.203333333333333 11.156666666666668 0 10.549166666666668 -17.203333333333333 21.711666666666666 -17.203333333333333 4.870833333333334 0 7.7316666666666665 3.3058333333333336 10.335833333333333 6.998333333333334 -1.8441666666666667 -1.7125000000000001 -3.995 -2.896666666666667 -6.835833333333334 -2.896666666666667 -9.963333333333335 0 -10.885833333333334 13.975833333333334 -18.343333333333334 17.838333333333335v37.58083333333333c0 7.620833333333334 6.1816666666666675 13.802500000000002 13.801666666666668 13.802500000000002 7.620833333333334 0 13.802500000000002 -6.1816666666666675 13.802500000000002 -13.802500000000002v-49.10416666666667c2.566666666666667 3.61 5.3916666666666675 6.786666666666667 10.1725 6.786666666666667 11.156666666666668 0 10.55 -17.203333333333333 21.712500000000002 -17.203333333333333 3.8750000000000004 0 6.445 2.1266666666666665 8.658333333333333 4.833333333333333 -1.0783333333333334 -0.4441666666666667 -2.2458333333333336 -0.7316666666666668 -3.580833333333334 -0.7316666666666668 -9.651666666666667 0 -10.8 13.116666666666669 -17.642500000000002 17.4475v20.296666666666667c0 6.858333333333333 5.5600000000000005 12.418333333333335 12.418333333333335 12.418333333333335s12.418333333333335 -5.5600000000000005 12.418333333333335 -12.418333333333335V136.425c2.6950000000000003 3.880833333333334 5.57 7.454166666666667 10.645000000000001 7.454166666666667 6.629166666666667 0 9.108333333333334 -6.072500000000001 12.369166666666667 -11.002500000000001 5.7316666666666665 -12.253333333333334 8.9525 -26.0375 8.9525 -40.60833333333334C187.93166666666667 41.307500000000005 148.57 0 100.00833333333334 0zm-4.720000000000001 23.975c23.997500000000002 0 43.45666666666667 23.196666666666665 43.45666666666667 48.38833333333334 0 25.19166666666667 -12.879166666666668 42.92000000000001 -43.45666666666667 42.92000000000001 -30.5775 0 -43.4575 -17.728333333333335 -43.4575 -42.92000000000001S71.29 23.975 95.28833333333334 23.975zm-11.686666666666667 13.833333333333334a16.295 17.985833333333336 0 0 0 -16.291666666666668 17.985 16.295 17.985833333333336 0 0 0 16.291666666666668 17.985 16.295 17.985833333333336 0 0 0 16.2925 -17.985 16.295 17.985833333333336 0 0 0 -16.291666666666668 -17.985zm-2.7175000000000002 5.533333333333334a8.1475 8.300833333333333 0 0 1 8.154166666666667 8.301666666666668 8.1475 8.300833333333333 0 0 1 -8.154166666666667 8.3 8.1475 8.300833333333333 0 0 1 -8.138333333333334 -8.3 8.1475 8.300833333333333 0 0 1 8.138333333333334 -8.300833333333333zM56.30666666666667 130.77916666666667c-8.955 0 -10.603333333333333 11.285000000000002 -16.25916666666667 16.373333333333335v14.844166666666668c0 6.858333333333333 5.5600000000000005 12.418333333333335 12.418333333333335 12.418333333333335s12.418333333333335 -5.5600000000000005 12.418333333333335 -12.418333333333335v-26.51416666666667c-2.2025 -2.6975000000000002 -4.805833333333333 -4.703333333333334 -8.577500000000002 -4.703333333333334Z" fill="#dedede" stroke-width="8.3333"></path>
</svg>