<svg role="img" viewBox="0 0 200 200" xmlns="http://www.w3.org/2000/svg" id="Mysql--Streamline-Simple-Icons" height="200" width="200">
  <desc>
    Mysql Streamline Icon: https://streamlinehq.com
  </desc>
  <title>MySQL</title>
  <path d="M136.70833333333334 45.841666666666676c-0.9583333333333335 0 -1.6083333333333334 0.11666666666666668 -2.2833333333333337 0.275v0.10833333333333334h0.11666666666666668c0.45 0.8666666666666667 1.2166666666666668 1.5 1.7833333333333334 2.2750000000000004 0.45 0.8916666666666667 0.8333333333333335 1.7833333333333334 1.2833333333333334 2.666666666666667l0.11666666666666668 -0.125c0.7833333333333334 -0.55 1.166666666666667 -1.4333333333333333 1.166666666666667 -2.7750000000000004 -0.33333333333333337 -0.3916666666666667 -0.38333333333333336 -0.7833333333333334 -0.6666666666666667 -1.166666666666667 -0.33333333333333337 -0.5583333333333335 -1.05 -0.8333333333333335 -1.5 -1.2750000000000001zM48.083333333333336 155.79166666666669h-7.7250000000000005a423.78333333333336 423.78333333333336 0 0 0 -2.2500000000000004 -36.75000000000001h-0.06666666666666668l-11.75 36.75000000000001H20.416666666666668l-11.666666666666666 -36.75000000000001h-0.08333333333333334a607.4333333333334 607.4333333333334 0 0 0 -1.6250000000000002 36.75000000000001H0c0.45833333333333337 -16.383333333333333 1.6 -31.750000000000004 3.4166666666666665 -46.083333333333336h9.583333333333334l11.125 33.86666666666667h0.06666666666666668l11.225000000000001 -33.86666666666667h9.125c2.0166666666666666 16.791666666666668 3.2 32.16666666666667 3.566666666666667 46.083333333333336zm33.47500000000001 -34c-3.1500000000000004 17.041666666666668 -7.300000000000001 29.441666666666666 -12.433333333333334 37.16666666666667 -4.016666666666667 5.966666666666667 -8.416666666666668 8.941666666666666 -13.191666666666666 8.941666666666666 -1.2750000000000001 0 -2.833333333333334 -0.38333333333333336 -4.716666666666667 -1.1500000000000001v-4.116666666666667c0.9166666666666667 0.1416666666666667 2 0.21666666666666667 3.216666666666667 0.21666666666666667 2.233333333333334 0 4.025 -0.625 5.3916666666666675 -1.85 1.6416666666666668 -1.5 2.4583333333333335 -3.1833333333333336 2.4583333333333335 -5.041666666666667 0 -1.2916666666666667 -0.6416666666666667 -3.9166666666666665 -1.916666666666667 -7.866666666666667L51.91666666666667 121.79166666666667h7.583333333333334l6.058333333333334 19.666666666666668c1.366666666666667 4.466666666666668 1.9416666666666669 7.583333333333334 1.7083333333333333 9.358333333333334 3.333333333333334 -8.866666666666667 5.65 -18.558333333333334 6.958333333333334 -29.025000000000002zm102.70833333333333 34h-21.916666666666668v-46.083333333333336h7.375000000000001v40.416666666666664h14.541666666666668zm-27.666666666666668 1.1250000000000002 -8.466666666666667 -4.166666666666667c0.75 -0.6333333333333334 1.475 -1.3166666666666669 2.125 -2.0833333333333335 3.6083333333333334 -4.216666666666667 5.4 -10.483333333333334 5.4 -18.775000000000002 0 -15.250000000000002 -5.983333333333333 -22.883333333333336 -17.958333333333332 -22.883333333333336 -5.866666666666667 0 -10.450000000000001 1.9333333333333336 -13.75 5.808333333333334 -3.5833333333333335 4.233333333333333 -5.383333333333334 10.466666666666667 -5.383333333333334 18.708333333333336 0 8.1 1.5833333333333335 14.05 4.783333333333333 17.833333333333336 2.9166666666666665 3.4166666666666665 7.308333333333334 5.125 13.191666666666666 5.125 2.2 0 4.216666666666667 -0.275 6.041666666666667 -0.8166666666666668l11.041666666666668 6.433333333333334 3 -5.183333333333334zM129.16666666666669 146.5666666666667c-1.8750000000000002 -3 -2.8083333333333336 -7.833333333333333 -2.8083333333333336 -14.466666666666667 0 -11.608333333333334 3.5333333333333337 -17.416666666666668 10.583333333333334 -17.416666666666668 3.691666666666667 0 6.416666666666667 1.3916666666666668 8.141666666666667 4.166666666666667 1.866666666666667 3.0166666666666666 2.8000000000000003 7.800000000000001 2.8000000000000003 14.358333333333334 0 11.7 -3.5333333333333337 17.56666666666667 -10.583333333333334 17.56666666666667 -3.7083333333333335 0 -6.416666666666667 -1.3916666666666668 -8.15 -4.166666666666667zm-13.816666666666666 -3.541666666666667c0 3.9166666666666665 -1.4333333333333333 7.133333333333334 -4.300000000000001 9.633333333333333 -2.8666666666666667 2.5 -6.691666666666667 3.7500000000000004 -11.533333333333333 3.7500000000000004 -4.525 0 -8.866666666666667 -1.4333333333333333 -13.108333333333334 -4.291666666666667l1.975 -3.966666666666667c3.6500000000000004 1.8333333333333335 6.941666666666666 2.733333333333334 9.916666666666666 2.733333333333334 2.766666666666667 0 4.941666666666666 -0.6083333333333334 6.525 -1.8333333333333335a6.283333333333334 6.283333333333334 0 0 0 2.5 -5.125c0 -2.7500000000000004 -1.916666666666667 -5.083333333333334 -5.4 -7.041666666666667 -3.233333333333334 -1.7750000000000001 -9.691666666666668 -5.4750000000000005 -9.691666666666668 -5.4750000000000005 -3.5166666666666666 -2.5583333333333336 -5.2666666666666675 -5.300000000000001 -5.2666666666666675 -9.808333333333334 0 -3.7500000000000004 1.3083333333333333 -6.750000000000001 3.9166666666666665 -9.041666666666668 2.625 -2.316666666666667 6 -3.4583333333333335 10.166666666666668 -3.4583333333333335 4.2666666666666675 0 8.166666666666668 1.1333333333333335 11.666666666666666 3.4166666666666665l-1.7750000000000001 3.966666666666667a22.71666666666667 22.71666666666667 0 0 0 -8.866666666666667 -1.916666666666667c-2.3583333333333334 0 -4.183333333333334 0.5666666666666668 -5.45 1.7166666666666668a5.708333333333334 5.708333333333334 0 0 0 -2.066666666666667 4.366666666666667c0 2.733333333333334 1.9500000000000002 5.083333333333334 5.550000000000001 7.083333333333334 3.2750000000000004 1.7916666666666667 9.891666666666667 5.583333333333334 9.891666666666667 5.583333333333334 3.6083333333333334 2.541666666666667 5.4 5.25 5.4 9.733333333333334zm78.18333333333334 -48.76666666666667c-4.458333333333334 -0.11666666666666668 -7.916666666666667 0.33333333333333337 -10.808333333333334 1.5666666666666669 -0.8333333333333335 0.33333333333333337 -2.166666666666667 0.33333333333333337 -2.2833333333333337 1.3916666666666668 0.45833333333333337 0.4416666666666667 0.525 1.166666666666667 0.9166666666666667 1.7833333333333334 0.6666666666666667 1.116666666666667 1.8166666666666669 2.6083333333333334 2.8833333333333333 3.3916666666666666 1.166666666666667 0.9166666666666667 2.333333333333334 1.8 3.5583333333333336 2.5833333333333335 2.166666666666667 1.3333333333333335 4.625000000000001 2.125 6.750000000000001 3.466666666666667 1.2083333333333333 0.7833333333333334 2.441666666666667 1.7750000000000001 3.666666666666667 2.6083333333333334 0.6083333333333334 0.41666666666666674 1 1.166666666666667 1.7833333333333334 1.4333333333333333v-0.16666666666666669c-0.38333333333333336 -0.5 -0.5 -1.225 -0.875 -1.7833333333333334 -0.5583333333333335 -0.5583333333333335 -1.116666666666667 -1.0583333333333333 -1.666666666666667 -1.6083333333333334a26.858333333333334 26.858333333333334 0 0 0 -5.791666666666667 -5.625000000000001c-1.7833333333333334 -1.2166666666666668 -5.6833333333333345 -2.9166666666666665 -6.416666666666667 -4.958333333333333l-0.10833333333333334 -0.11666666666666668c1.2166666666666668 -0.10833333333333334 2.666666666666667 -0.55 3.833333333333334 -0.8833333333333334 1.8916666666666668 -0.5 3.6250000000000004 -0.3916666666666667 5.583333333333334 -0.8833333333333334 0.8833333333333334 -0.225 1.7750000000000001 -0.5 2.666666666666667 -0.7833333333333334v-0.5c-1 -1 -1.75 -2.3583333333333334 -2.7833333333333337 -3.291666666666667a73.89166666666668 73.89166666666668 0 0 0 -9.200000000000001 -6.858333333333333c-1.75 -1.116666666666667 -3.966666666666667 -1.8333333333333335 -5.808333333333334 -2.7833333333333337 -0.6666666666666667 -0.33333333333333337 -1.7833333333333334 -0.5 -2.166666666666667 -1.0583333333333333 -1 -1.2166666666666668 -1.5833333333333335 -2.833333333333334 -2.291666666666667 -4.283333333333334a147.41666666666669 147.41666666666669 0 0 1 -4.558333333333334 -9.691666666666668c-1 -2.1833333333333336 -1.6083333333333334 -4.358333333333333 -2.833333333333334 -6.358333333333334 -5.75 -9.475000000000001 -11.975000000000001 -15.216666666666669 -21.55 -20.833333333333336 -2.0583333333333336 -1.166666666666667 -4.525 -1.666666666666667 -7.133333333333334 -2.2833333333333337 -1.3916666666666668 -0.06666666666666668 -2.7833333333333337 -0.16666666666666669 -4.166666666666667 -0.225 -0.9166666666666667 -0.3916666666666667 -1.8 -1.45 -2.5833333333333335 -1.9583333333333333 -3.166666666666667 -2 -11.366666666666669 -6.333333333333334 -13.700000000000001 -0.6 -1.5 3.6166666666666667 2.225 7.183333333333334 3.5166666666666666 9.016666666666667 0.9583333333333335 1.2750000000000001 2.166666666666667 2.733333333333334 2.833333333333334 4.166666666666667 0.3916666666666667 0.9666666666666668 0.5 1.9583333333333333 0.8916666666666667 2.966666666666667 0.8833333333333334 2.45 1.725 5.183333333333334 2.8916666666666666 7.4750000000000005 0.6083333333333334 1.166666666666667 1.2750000000000001 2.3916666666666666 2.0583333333333336 3.441666666666667 0.45 0.6083333333333334 1.2166666666666668 0.8916666666666667 1.3916666666666668 1.8916666666666668 -0.7833333333333334 1.1333333333333335 -0.8333333333333335 2.7833333333333337 -1.2833333333333334 4.166666666666667 -2 6.308333333333334 -1.2166666666666668 14.108333333333334 1.616666666666667 18.75 0.8916666666666667 1.3833333333333335 3.0166666666666666 4.45 5.858333333333333 3.2750000000000004 2.5 -1 1.9500000000000002 -4.166666666666667 2.666666666666667 -6.958333333333334 0.16666666666666669 -0.6666666666666667 0.05833333333333334 -1.1083333333333334 0.4 -1.5583333333333333v0.125c0.7833333333333334 1.5666666666666669 1.5666666666666669 3.0583333333333336 2.2833333333333337 4.625000000000001 1.7166666666666668 2.733333333333334 4.716666666666667 5.566666666666667 7.2250000000000005 7.458333333333334 1.3333333333333335 1 2.3916666666666666 2.733333333333334 4.058333333333334 3.3500000000000005v-0.16666666666666669h-0.125c-0.35833333333333334 -0.4833333333333334 -0.8333333333333335 -0.7166666666666667 -1.2833333333333334 -1.1083333333333334a28.708333333333336 28.708333333333336 0 0 1 -2.9166666666666665 -3.333333333333334 73 73 0 0 1 -6.2250000000000005 -10.15c-0.9166666666666667 -1.75 -1.6833333333333336 -3.6333333333333337 -2.4166666666666665 -5.358333333333334 -0.33333333333333337 -0.6666666666666667 -0.33333333333333337 -1.666666666666667 -0.8916666666666667 -2 -0.8333333333333335 1.2166666666666668 -2.0583333333333336 2.2750000000000004 -2.666666666666667 3.7750000000000004 -1.0583333333333333 2.4 -1.166666666666667 5.3500000000000005 -1.5666666666666669 8.416666666666668 -0.225 0.05833333333333334 -0.11666666666666668 0 -0.225 0.11666666666666668 -1.7833333333333334 -0.43333333333333335 -2.3916666666666666 -2.2833333333333337 -3.0583333333333336 -3.833333333333334 -1.666666666666667 -3.9583333333333335 -1.9416666666666669 -10.316666666666666 -0.5 -14.875 0.3916666666666667 -1.166666666666667 2.0583333333333336 -4.85 1.3916666666666668 -5.966666666666667 -0.35000000000000003 -1.0583333333333333 -1.45 -1.666666666666667 -2.0583333333333336 -2.525a20.650000000000002 20.650000000000002 0 0 1 -2 -3.5583333333333336c-1.3333333333333335 -3.1166666666666667 -2 -6.566666666666667 -3.45 -9.683333333333334 -0.6666666666666667 -1.4416666666666667 -1.8333333333333335 -2.95 -2.7833333333333337 -4.275 -1.0583333333333333 -1.5 -2.225 -2.5583333333333336 -3.066666666666667 -4.333333333333334 -0.275 -0.6083333333333334 -0.6666666666666667 -1.616666666666667 -0.225 -2.2833333333333337 0.11666666666666668 -0.45 0.35000000000000003 -0.625 0.7833333333333334 -0.75 0.7333333333333334 -0.6 2.791666666666667 0.18333333333333335 3.5166666666666666 0.5166666666666667 2.0583333333333336 0.8333333333333335 3.791666666666667 1.616666666666667 5.5166666666666675 2.7833333333333337 0.7833333333333334 0.55 1.6250000000000002 1.6083333333333334 2.625 1.8833333333333335h1.166666666666667c1.7833333333333334 0.3916666666666667 3.791666666666667 0.11666666666666668 5.458333333333334 0.6083333333333334 2.9583333333333335 0.9500000000000001 5.625000000000001 2.333333333333334 8.016666666666667 3.833333333333334a49.60833333333334 49.60833333333334 0 0 1 17.375 19.05c0.6666666666666667 1.2833333333333334 0.9583333333333335 2.4583333333333335 1.5666666666666669 3.791666666666667 1.166666666666667 2.7500000000000004 2.6083333333333334 5.525 3.791666666666667 8.183333333333334 1.166666666666667 2.625 2.291666666666667 5.300000000000001 3.966666666666667 7.4750000000000005 0.8333333333333335 1.166666666666667 4.183333333333334 1.7750000000000001 5.6833333333333345 2.3833333333333333 1.1083333333333334 0.5 2.833333333333334 0.9583333333333335 3.833333333333334 1.5666666666666669 1.916666666666667 1.166666666666667 3.7833333333333337 2.5 5.583333333333334 3.7833333333333337 0.9166666666666667 0.6333333333333334 3.691666666666667 2.025 3.858333333333334 3.1500000000000004z" fill="#dedede" stroke-width="8.3333"></path>
</svg>