<svg role="img" viewBox="0 0 200 200" xmlns="http://www.w3.org/2000/svg" id="Nodedotjs--Streamline-Simple-Icons" height="200" width="200">
  <desc>
    Nodedotjs Streamline Icon: https://streamlinehq.com
  </desc>
  <title>Node.js</title>
  <path d="M99.98333333333333 200c-2.6750000000000003 0 -5.341666666666667 -0.7000000000000001 -7.6833333333333345 -2.0583333333333336L67.83333333333334 183.46666666666667c-3.6500000000000004 -2.041666666666667 -1.866666666666667 -2.766666666666667 -0.6666666666666667 -3.191666666666667 4.875 -1.6916666666666669 5.858333333333333 -2.0833333333333335 11.066666666666668 -5.033333333333333 0.5416666666666667 -0.30833333333333335 1.2583333333333333 -0.19166666666666668 1.8166666666666669 0.1416666666666667l18.8 11.158333333333333c0.6833333333333335 0.375 1.6416666666666668 0.375 2.266666666666667 0l73.29166666666667 -42.3c0.6833333333333335 -0.3916666666666667 1.116666666666667 -1.175 1.116666666666667 -1.9833333333333334V57.675000000000004c0 -0.8250000000000001 -0.4416666666666667 -1.6 -1.1416666666666668 -2.0166666666666666l-73.25833333333334 -42.26666666666667c-0.675 -0.3916666666666667 -1.5750000000000002 -0.3916666666666667 -2.2583333333333337 0L25.625000000000004 55.66666666666667c-0.7083333333333335 0.4083333333333334 -1.1583333333333334 1.2083333333333333 -1.1583333333333334 2.0083333333333333v84.58333333333334c0 0.8083333333333335 0.45 1.5750000000000002 1.1583333333333334 1.9583333333333333l20.075 11.6c10.891666666666667 5.45 17.56666666666667 -0.9666666666666668 17.56666666666667 -7.416666666666667V64.89166666666667c0 -1.1833333333333333 0.9500000000000001 -2.1083333333333334 2.1333333333333337 -2.1083333333333334h9.291666666666668c1.1583333333333334 0 2.125 0.9333333333333335 2.125 2.1083333333333334v83.50833333333334c0 14.541666666666668 -7.916666666666667 22.875000000000004 -21.700000000000003 22.875000000000004 -4.233333333333333 0 -7.575000000000001 0 -16.883333333333333 -4.591666666666668L19 155.62500000000003c-4.75 -2.741666666666667 -7.6833333333333345 -7.875 -7.6833333333333345 -13.366666666666669V57.675000000000004c0 -5.491666666666667 2.941666666666667 -10.625 7.6833333333333345 -13.358333333333334L92.29166666666667 1.9666666666666668c4.6416666666666675 -2.625 10.8 -2.625 15.400000000000002 0l73.28333333333335 42.35c4.75 2.741666666666667 7.700000000000001 7.866666666666667 7.700000000000001 13.358333333333334v84.58333333333334c0 5.491666666666667 -2.95 10.608333333333333 -7.700000000000001 13.366666666666669l-73.28333333333335 42.31666666666667c-2.333333333333334 1.3583333333333334 -4.991666666666667 2.0583333333333336 -7.708333333333334 2.0583333333333336zm59.175000000000004 -83.39166666666667c0 -15.833333333333334 -10.700000000000001 -20.050000000000004 -33.225 -23.025000000000002 -22.758333333333333 -3.0083333333333333 -25.075 -4.566666666666667 -25.075 -9.891666666666667 0 -4.4 1.9583333333333333 -10.275000000000002 18.816666666666666 -10.275000000000002 15.058333333333334 0 20.608333333333334 3.241666666666667 22.891666666666666 13.391666666666667 0.2 0.9583333333333335 1.0750000000000002 1.6583333333333334 2.0583333333333336 1.6583333333333334h9.508333333333335c0.5916666666666667 0 1.1500000000000001 -0.25833333333333336 1.55 -0.675 0.4 -0.45 0.6166666666666667 -1.0250000000000001 0.5583333333333335 -1.6333333333333335 -1.475 -17.483333333333334 -13.091666666666667 -25.633333333333336 -36.56666666666667 -25.633333333333336 -20.900000000000002 0 -33.36666666666667 8.816666666666668 -33.36666666666667 23.608333333333338 0 16.041666666666668 12.4 20.475 32.458333333333336 22.458333333333332 24 2.35 25.858333333333338 5.858333333333333 25.858333333333338 10.575 0 8.191666666666666 -6.575000000000001 11.683333333333334 -22.016666666666666 11.683333333333334 -19.39166666666667 0 -23.658333333333335 -4.866666666666667 -25.09166666666667 -14.516666666666667 -0.16666666666666669 -1.0333333333333334 -1.05 -1.7916666666666667 -2.1083333333333334 -1.7916666666666667h-9.475000000000001c-1.175 0 -2.1166666666666667 0.9333333333333335 -2.1166666666666667 2.1083333333333334 0 12.350000000000001 6.716666666666668 27.06666666666667 38.79166666666667 27.06666666666667 23.233333333333334 0.008333333333333335 36.550000000000004 -9.133333333333335 36.550000000000004 -25.108333333333334z" fill="#dedede" stroke-width="8.3333"></path>
</svg>