<svg role="img" viewBox="0 0 200 200" xmlns="http://www.w3.org/2000/svg" id="Typescript--Streamline-Simple-Icons" height="200" width="200">
  <desc>
    Typescript Streamline Icon: https://streamlinehq.com
  </desc>
  <title>TypeScript</title>
  <path d="M9.375 0C4.183333333333334 0 0 4.183333333333334 0 9.375v181.25C0 195.8166666666667 4.183333333333334 200 9.375 200h181.25c5.191666666666667 0 9.375 -4.183333333333334 9.375 -9.375V9.375C200 4.183333333333334 195.8166666666667 0 190.625 0zm144.69166666666666 81.25c5.1000000000000005 0 9.616666666666667 0.30833333333333335 13.558333333333334 0.925a53.16666666666667 53.16666666666667 0 0 1 10.883333333333335 2.833333333333334v20.483333333333338a32.91666666666667 32.91666666666667 0 0 0 -5.358333333333334 -3.0083333333333333 42.44166666666667 42.44166666666667 0 0 0 -5.9750000000000005 -2.166666666666667 45.44166666666667 45.44166666666667 0 0 0 -11.883333333333333 -1.666666666666667c-2.5 0 -4.775 0.23333333333333336 -6.825 0.7166666666666667a17.500000000000004 17.500000000000004 0 0 0 -5.191666666666667 2.0166666666666666c-1.416666666666667 0.8666666666666667 -2.5 1.9083333333333334 -3.2750000000000004 3.1166666666666667a7.4 7.4 0 0 0 -1.166666666666667 4.083333333333334c0 1.6333333333333335 0.4416666666666667 3.1083333333333334 1.3 4.408333333333334 0.8666666666666667 1.3 2.1 2.5333333333333337 3.691666666666667 3.7s3.5250000000000004 2.3000000000000003 5.8 3.4166666666666665c2.2750000000000004 1.1250000000000002 4.85 2.2833333333333337 7.716666666666668 3.466666666666667 3.9166666666666665 1.6416666666666668 7.433333333333334 3.3916666666666666 10.55 5.233333333333333 3.1166666666666667 1.85 5.791666666666667 3.941666666666667 8.025 6.275 2.233333333333334 2.325 3.9333333333333336 4.983333333333333 5.116666666666667 7.9750000000000005 1.1833333333333333 2.9916666666666667 1.7833333333333334 6.466666666666668 1.7833333333333334 10.441666666666666 0 5.4750000000000005 -1.0416666666666667 10.083333333333334 -3.1083333333333334 13.8a25.275000000000002 25.275000000000002 0 0 1 -8.433333333333334 9.041666666666668 36.5 36.5 0 0 1 -12.391666666666667 4.966666666666667c-4.716666666666667 1 -9.691666666666668 1.5 -14.916666666666668 1.5a82.63333333333334 82.63333333333334 0 0 1 -15.333333333333336 -1.366666666666667 46.2 46.2 0 0 1 -12.600000000000001 -4.108333333333333v-21.916666666666668a41.94166666666667 41.94166666666667 0 0 0 26.975 10c2.7750000000000004 0 5.2 -0.25 7.2666666666666675 -0.75 2.075 -0.5 3.8000000000000003 -1.2 5.191666666666667 -2.0833333333333335 1.3833333333333335 -0.9 2.4166666666666665 -1.9500000000000002 3.1083333333333334 -3.166666666666667a8.525 8.525 0 0 0 -0.6166666666666667 -9.075000000000001 17.666666666666668 17.666666666666668 0 0 0 -4.4750000000000005 -4.166666666666667 46.64166666666667 46.64166666666667 0 0 0 -6.7250000000000005 -3.7 231 231 0 0 0 -8.391666666666666 -3.6333333333333337c-7.650000000000001 -3.191666666666667 -13.350000000000001 -7.1000000000000005 -17.108333333333334 -11.708333333333334 -3.7500000000000004 -4.608333333333334 -5.633333333333334 -10.183333333333334 -5.633333333333334 -16.708333333333332 0 -5.116666666666667 1.0250000000000001 -9.508333333333335 3.075 -13.183333333333335 2.0500000000000003 -3.6750000000000003 4.833333333333333 -6.700000000000001 8.366666666666667 -9.075000000000001a37.45 37.45 0 0 1 12.25 -5.241666666666667 62.800000000000004 62.800000000000004 0 0 1 14.750000000000002 -1.6750000000000003zm-125.94166666666668 1.5666666666666669h79.69166666666668v18.05H79.21666666666667v80.38333333333334H56.575v-80.38333333333334H28.125000000000004z" fill="#dedede" stroke-width="8.3333"></path>
</svg>